<svg width="154" height="298" viewBox="0 0 154 298" fill="none" xmlns="http://www.w3.org/2000/svg">
<path d="M59.4801 295.66C62.3501 295.61 65.2302 295.57 68.0902 295.3C69.5202 295.17 70.9602 294.98 72.3302 294.57C73.4102 294.25 74.5401 293.71 75.0401 292.7C75.1101 292.56 75.1702 292.4 75.1402 292.24C75.1202 292.08 75.0202 291.95 74.9002 291.84C74.3202 291.27 73.4201 291.25 72.6101 291.26C64.6801 291.37 56.7502 291.52 48.8402 292.16C47.4202 292.28 45.8101 292.51 44.9901 293.68C43.2001 296.23 49.3601 295.67 50.4701 295.7C53.4801 295.76 56.4801 295.71 59.4801 295.66Z" fill="url(#paint0_linear)"/>
<path d="M59.4801 295.66C62.3501 295.61 65.2302 295.57 68.0902 295.3C69.5202 295.17 70.9602 294.98 72.3302 294.57C73.4102 294.25 74.5401 293.71 75.0401 292.7C75.1101 292.56 75.1702 292.4 75.1402 292.24C75.1202 292.08 75.0202 291.95 74.9002 291.84C74.3202 291.27 73.4201 291.25 72.6101 291.26C64.6801 291.37 56.7502 291.52 48.8402 292.16C47.4202 292.28 45.8101 292.51 44.9901 293.68C43.2001 296.23 49.3601 295.67 50.4701 295.7C53.4801 295.76 56.4801 295.71 59.4801 295.66Z" fill="url(#paint1_linear)"/>
<path d="M39.2801 258.04C41.4201 268.56 47.5101 277.96 49.6401 288.49C49.7801 289.18 49.9101 289.89 50.2901 290.47C50.6801 291.05 51.4001 291.48 52.0701 291.3C53.2901 290.97 53.2801 289.27 53.1101 288.02C52.6101 284.29 53.0401 280.5 53.4801 276.76C54.1601 270.93 54.8401 265.1 55.5201 259.26C56.0301 258.73 56.9501 258.85 57.5101 259.33C58.0701 259.8 58.3401 260.52 58.5601 261.22C59.5501 264.33 59.9601 267.58 60.3801 270.81C61.2101 277.28 62.0301 283.76 62.1301 290.28C62.7201 290.32 63.3101 290.36 63.9001 290.39C66.3201 283.93 68.14 277.27 69.85 270.6C70.72 267.22 71.5601 263.83 72.1101 260.38C72.8301 255.85 73.0201 251.25 73.1701 246.67C73.2001 245.74 73.2101 244.75 72.6801 243.98C72.2101 243.3 71.4001 242.95 70.6201 242.65C63.9301 240.08 56.74 239.13 49.6 238.57C47.59 238.41 45.5601 238.29 43.5801 238.65C42.0201 238.93 40.3201 239.55 39.1501 240.67C37.8301 241.94 38.2601 243.95 38.2501 245.7C38.2301 249.83 38.4501 253.98 39.2801 258.04Z" fill="#666666"/>
<path d="M35.0501 234.69C34.3901 236.69 33.8701 239.06 35.0901 240.78C35.6701 241.59 36.5501 242.12 37.4401 242.57C42.4401 245.09 48.1601 245.68 53.7301 246.22C58.7501 246.71 63.7901 247.2 68.8301 246.93C71.2301 246.8 73.7601 246.45 75.6301 244.94C77.4101 243.51 78.3401 241.22 78.5901 238.95C78.8401 236.68 78.5001 234.39 78.1501 232.13C77.7701 229.65 77.3901 227.17 76.7401 224.75C75.6101 220.54 73.6401 216.56 71.0001 213.1C69.0001 210.49 66.5701 208.13 63.5901 206.73C60.7701 205.4 56.4901 204.79 53.5601 206.22C50.6301 207.64 47.9401 211.73 45.9801 214.25C41.2101 220.38 37.4801 227.32 35.0501 234.69Z" fill="#826E00"/>
<path d="M62.9801 199.45C62.9501 199.98 62.9201 200.52 62.7701 201.04C62.4001 202.27 61.2801 203.38 59.7601 203.97C58.2401 204.56 56.3501 204.63 54.7901 204.11C53.2401 203.6 52.1001 202.6 51.1901 201.55C49.2901 199.35 48.1801 196.73 48.4401 194.13C48.4801 193.74 48.5601 193.34 48.8901 193.03C49.3601 192.59 50.1901 192.49 50.9401 192.43C53.4101 192.21 60.2601 190.65 62.2901 191.84C64.3001 193.02 63.0801 197.8 62.9801 199.45Z" fill="#F2D6C9"/>
<path d="M43.0202 191.98C43.3802 193.51 45.3301 194.67 47.4201 194.94C49.5101 195.2 51.6601 194.7 53.4801 193.9C55.4201 193.04 57.2401 191.79 59.5001 191.72C59.9201 191.71 60.3502 191.74 60.7102 191.88C61.1102 192.04 61.4001 192.33 61.6301 192.62C62.9201 194.22 63.1102 196.16 63.2702 198.01C63.9602 196.4 64.5102 194.76 64.9002 193.09C65.3302 191.27 65.4502 189.14 63.6502 187.87C62.2802 186.9 60.1702 186.73 58.2702 186.9C55.6002 187.14 53.0302 187.96 50.9602 189.22C50.1402 189.72 49.3901 190.29 48.4901 190.73C47.6001 191.16 46.5202 191.46 45.4602 191.32C44.3002 191.16 44.0701 190.45 43.2601 190.05C42.9301 190.61 42.8802 191.36 43.0202 191.98Z" fill="#D1B380"/>
<path d="M67.1101 218.05C66.3701 216.69 65.2801 215.58 64.3601 214.34C63.4401 213.1 62.6701 211.64 62.7501 210.1C62.8301 208.56 64.0401 207 65.5801 207.01C66.2201 207.01 66.8201 207.27 67.3901 207.56C69.2401 208.49 70.9301 209.76 72.3201 211.3C72.8601 211.9 73.3601 212.54 73.7101 213.27C74.2201 214.34 74.3601 215.55 74.4901 216.73C74.7101 218.81 74.8901 220.92 74.4401 222.96C73.7901 225.87 71.7101 228.47 68.9601 229.64C68.3701 229.89 67.4701 230.32 66.9101 230C66.3101 229.66 66.2001 228.88 66.3301 228.29C66.6701 226.67 67.7801 225.33 68.0301 223.61C68.2801 221.72 68.0301 219.74 67.1101 218.05Z" fill="#F2D6C9"/>
<path d="M63.9001 229.43C63.7801 229.51 63.6601 229.6 63.5701 229.71C63.3501 229.99 63.3401 230.37 63.3401 230.73C63.3401 231.3 63.4001 231.97 63.8901 232.26C64.1101 232.39 64.3801 232.41 64.6401 232.42C64.9101 232.43 65.1801 232.45 65.4501 232.46C65.7401 232.48 66.05 232.49 66.29 232.33C66.54 232.17 66.6501 231.87 66.7501 231.59C66.9901 230.9 67.23 230.22 67.47 229.53C67.51 229.41 67.5501 229.28 67.5001 229.17C67.4701 229.1 67.4001 229.05 67.3401 229.01C66.7701 228.57 66.5001 228.35 65.7701 228.51C65.1601 228.64 64.3401 228.99 63.9001 229.43Z" fill="#F2D6C9"/>
<path d="M69.2901 290.86C68.9301 290.53 68.4001 290.48 67.9201 290.45C67.2001 290.4 66.4801 290.34 65.7601 290.29C65.4501 290.27 65.1201 290.24 64.8701 290.06C64.7701 289.99 64.6901 289.89 64.6201 289.79C64.3901 289.79 64.1701 289.78 63.9401 289.78C63.1101 289.76 62.2801 290.07 61.4701 290.32C61.6401 291.03 61.8001 291.73 61.9701 292.44C62.0001 292.58 62.0401 292.73 62.1501 292.82C62.2601 292.91 62.4201 292.92 62.5701 292.92C64.9701 292.98 67.3801 292.89 69.7701 292.66C69.7901 292.01 69.7701 291.28 69.2901 290.86Z" fill="black"/>
<path d="M52.7302 290.22C52.7702 291.17 52.8002 292.17 52.3602 293.02C52.0502 293.62 51.5302 294.07 51.0202 294.52C50.7502 294.75 50.4902 294.98 50.2202 295.22C50.1502 295.28 50.0702 295.35 49.9802 295.38C49.8802 295.41 49.7702 295.41 49.6702 295.4C49.2102 295.38 48.7602 295.42 48.3002 295.39C47.8502 295.35 47.3802 295.22 47.0602 294.89C46.7402 294.56 46.6402 294 46.9202 293.64C47.1002 293.41 47.4002 293.3 47.6602 293.17C48.4502 292.81 49.1302 292.22 49.5902 291.49C49.8802 291.03 50.1502 290.55 50.6802 290.36C50.8802 290.29 52.7302 290.08 52.7302 290.22Z" fill="black"/>
<path d="M68.8802 227.44C68.7702 227.21 68.6502 226.98 68.4602 226.82C68.2102 226.62 67.8701 226.61 67.5601 226.6C61.9901 226.42 56.4102 226.23 50.8402 226.05C50.3902 226.03 49.9801 226.32 49.7901 226.76C48.8901 228.88 47.8202 230.66 47.1402 232.87C47.0502 233.17 47.2601 233.47 47.5601 233.48C55.0801 233.58 62.9901 234.39 70.5001 233.76C71.0101 233.72 71.3201 233.14 71.1001 232.65C70.3501 230.95 69.6202 228.96 68.8802 227.44Z" fill="#7F7F7F"/>
<path d="M68.7302 226.95C68.6202 226.72 68.5102 226.49 68.3102 226.33C68.0602 226.13 67.7302 226.12 67.4302 226.11C61.9602 225.93 56.4902 225.74 51.0302 225.56C50.5902 225.54 50.1802 225.83 50.0002 226.27C49.1102 228.39 48.0602 230.17 47.4002 232.38C47.3102 232.68 47.5202 232.98 47.8102 232.99C55.1902 233.09 62.9502 233.9 70.3202 233.27C70.8202 233.23 71.1202 232.65 70.9102 232.16C70.1802 230.46 69.4602 228.47 68.7302 226.95Z" fill="#666666"/>
<path d="M67.86 227.4C67.76 227.24 67.66 227.07 67.48 226.96C67.26 226.82 66.96 226.81 66.68 226.8C61.75 226.67 56.8201 226.53 51.8901 226.4C51.4901 226.39 51.1301 226.59 50.9601 226.91C50.1601 228.43 49.2101 229.71 48.6201 231.3C48.5401 231.51 48.73 231.73 48.99 231.74C55.65 231.81 62.65 232.4 69.29 231.94C69.74 231.91 70.0201 231.49 69.8201 231.14C69.1701 229.92 68.52 228.49 67.86 227.4Z" fill="#F0F0F0"/>
<path d="M61.3701 227.84C61.3401 227.88 61.3501 227.93 61.3601 227.98C61.5601 229.13 61.7601 230.3 62.2001 231.38C63.5201 231.38 64.8401 231.38 66.1601 231.39C66.5801 231.39 67.0001 231.39 67.4001 231.31C66.9601 230.17 66.5101 229.03 66.0701 227.89C64.5601 227.93 63.0501 227.9 61.5501 227.8C61.4801 227.79 61.4101 227.79 61.3701 227.84Z" fill="#E0C74E"/>
<path d="M59.7101 227.72C57.2801 227.85 54.8701 227.81 52.4401 227.72C52.2501 227.71 52.2501 228 52.4401 228.02C54.8601 228.2 57.2901 228.17 59.7101 228.05C59.9201 228.04 59.9301 227.71 59.7101 227.72Z" fill="#CACACA"/>
<path d="M59.9601 228.65C57.5801 228.64 55.2001 228.71 52.8301 228.84C52.6501 228.85 52.6501 229.13 52.8301 229.12C55.2101 229.01 57.5801 228.98 59.9601 228.99C60.1801 228.99 60.1801 228.65 59.9601 228.65Z" fill="#CACACA"/>
<path d="M59.9601 229.82C57.4601 229.71 54.9501 229.69 52.4501 229.7C52.2601 229.7 52.2601 229.99 52.4501 229.99C54.9601 230.03 57.4601 230.11 59.9601 230.17C60.1801 230.17 60.1801 229.83 59.9601 229.82Z" fill="#CACACA"/>
<path d="M59.29 230.71C57.07 230.69 54.84 230.73 52.61 230.75C52.42 230.75 52.42 231.04 52.61 231.04C54.83 231.06 57.06 231.1 59.29 231.08C59.53 231.08 59.53 230.72 59.29 230.71Z" fill="#CACACA"/>
<path d="M50.0901 229.48C50.5001 229.52 50.9201 229.56 51.3301 229.48C51.6701 229.42 52.0001 229.28 52.2801 229.08C52.7201 228.77 53.0501 228.27 53.0801 227.73C53.1001 227.19 52.7601 226.63 52.2401 226.48C52.0001 226.41 51.7501 226.43 51.5001 226.48C50.4001 226.67 49.4001 227.3 48.2901 227.38C47.8801 227.41 47.4201 227.38 47.1301 227.66C46.9701 227.82 46.8901 228.04 46.8501 228.27C46.8101 228.51 46.8001 228.78 46.9201 228.99C47.1501 229.4 47.8201 229.27 48.2201 229.3C48.8401 229.36 49.4601 229.42 50.0901 229.48Z" fill="#F2D6C9"/>
<path d="M42.7901 210.28C40.9501 211.66 39.4502 213.45 38.0202 215.25C36.7002 216.92 35.3901 218.67 34.7401 220.7C34.0901 222.73 34.2002 225.12 35.5202 226.79C36.8602 228.48 39.1001 229.1 41.2201 229.51C42.0601 229.67 42.9202 229.82 43.7802 229.76C44.7302 229.7 46.2601 229.88 47.1701 229.58C47.6601 229.42 47.6602 228.95 48.0302 228.59C48.4002 228.23 48.4801 227.45 48.2201 227.01C46.6801 226.91 45.1401 226.75 43.6101 226.53C42.3401 226.35 40.9602 226.06 40.1402 225.08C39.2502 224.02 39.3101 222.39 39.9701 221.17C40.6301 219.95 41.7801 219.08 42.9701 218.37C44.1601 217.66 45.4302 217.07 46.5302 216.23C48.4102 214.79 56.3302 209.07 54.0802 206.65C52.2802 204.75 44.3401 209.11 42.7901 210.28Z" fill="#F2D6C9"/>
<path d="M74.7601 214.17C74.8501 213.6 74.46 213.07 74.1 212.62C73.31 211.64 72.52 210.65 71.72 209.67C71.34 209.2 70.9601 208.72 70.4901 208.33C69.5601 207.55 68.3601 207.18 67.2001 206.84C65.8701 206.45 64.3201 206.12 63.2001 206.93C62.4301 207.49 62.0801 208.48 62.0801 209.43C62.0801 210.38 62.39 211.29 62.73 212.18C63.23 213.5 63.77 214.87 64.48 216.09C65.07 217.12 65.73 217.04 66.73 216.59C69.34 215.42 71.9201 214.51 74.7601 214.17Z" fill="#FCEE9F"/>
<path d="M44.1701 213C45.0301 214.37 46.0902 215.6 47.1502 216.82C47.2302 216.92 47.3302 217.02 47.4602 217.02C47.5602 217.02 47.6501 216.96 47.7201 216.9C48.5501 216.26 49.1102 215.35 49.8302 214.59C51.2602 213.09 53.3202 212.21 54.4502 210.48C55.0902 209.49 55.3701 208.27 55.2301 207.1C55.1801 206.69 55.0702 206.27 54.8102 205.96C54.4402 205.51 53.8302 205.33 53.2502 205.33C52.4202 205.33 51.6201 205.62 50.8501 205.92C48.6601 206.77 46.5002 207.71 44.3802 208.73C43.8602 208.98 43.3302 209.24 42.8102 209.5C42.1302 209.85 41.9602 209.84 42.4002 210.44C43.0302 211.27 43.6101 212.1 44.1701 213Z" fill="#FCEE9F"/>
<path d="M110.05 297.43C111.97 297.43 113.93 297.41 115.76 296.82C115.9 296.39 115.64 295.9 115.26 295.64C114.88 295.38 114.42 295.3 113.96 295.24C112.42 295.04 110.86 294.99 109.3 294.94C103.25 294.76 97.1901 294.58 91.1301 294.54C90.3701 294.53 87.2001 294.74 88.1001 296.28C88.7001 297.31 91.5101 296.95 92.4901 297C96.2201 297.18 99.9501 297.3 103.69 297.37C105.81 297.41 107.93 297.43 110.05 297.43Z" fill="url(#paint2_linear)"/>
<path d="M110.05 297.43C111.97 297.43 113.93 297.41 115.76 296.82C115.9 296.39 115.64 295.9 115.26 295.64C114.88 295.38 114.42 295.3 113.96 295.24C112.42 295.04 110.86 294.99 109.3 294.94C103.25 294.76 97.1901 294.58 91.1301 294.54C90.3701 294.53 87.2001 294.74 88.1001 296.28C88.7001 297.31 91.5101 296.95 92.4901 297C96.2201 297.18 99.9501 297.3 103.69 297.37C105.81 297.41 107.93 297.43 110.05 297.43Z" fill="url(#paint3_linear)"/>
<path d="M114.98 236.18C114.98 236.18 115.32 230.82 105.61 231.2C105.42 231.21 105.24 231.21 105.06 231.22C104.99 231.26 104.93 231.29 104.86 231.33C104.72 231.69 104.6 232.05 104.51 232.42C104.48 232.52 104.46 232.68 104.43 232.83C104.36 233.41 104.38 233.15 104.43 232.83C104.44 232.71 104.46 232.56 104.48 232.37C104.45 232.61 104.4 232.85 104.37 233.08C104.07 235.22 104.14 237.38 103.95 239.52C103.79 241.35 103.42 243.18 103.02 244.99C103.4 244.97 103.83 244.98 104.07 245.07C104.56 245.25 104.79 289.65 103.95 292.41L107.81 292.45C107.82 292.46 115.3 246.86 114.98 236.18Z" fill="#97A8B2"/>
<path d="M104.38 211.25C103.25 211.09 102.05 211.68 101.5 212.68C101.15 213.32 101.06 214.07 100.97 214.8C100.65 217.39 100.24 219.97 99.7501 222.54C99.4201 224.28 99.38 227.74 96.92 227.91C96 227.98 95.0501 227.28 94.1401 227.14C92.6501 226.9 91.2501 226.82 89.8101 226.3C88.6501 225.88 87.8801 225.26 87.0101 224.42C86.4901 223.91 85.7601 222.9 85.0601 222.71C84.5601 222.57 83.93 223.15 84.24 223.56C83.62 223.19 82.7301 223.78 82.7001 224.51C82.6401 225.9 85.38 226.69 86.35 227.29C87.85 228.23 89.3301 229.22 90.9601 229.92C93.5301 231.02 96.31 231.64 99.1 231.69C99.59 231.7 100.11 231.68 100.53 231.43C101.43 230.88 101.91 229.59 102.6 228.79C103.23 228.05 103.57 227.56 103.86 226.6C104.66 223.96 105.35 221.25 105.87 218.54C106.36 216.26 108.05 211.79 104.38 211.25Z" fill="#EADDD0"/>
<path d="M93.0601 252.12C93.1201 253.83 93.24 255.54 93.35 257.25C93.52 259.81 93.69 262.37 93.85 264.93C93.9 265.75 93.98 266.62 94.48 267.27C94.53 267.34 94.59 267.4 94.67 267.43C94.94 267.53 95.1501 267.19 95.2401 266.92C96.3101 263.7 97.89 260.66 99.92 257.94C100.44 257.25 101 256.56 101.75 256.13C102.31 255.81 102.95 255.64 103.59 255.48C104.85 255.16 106.12 254.84 107.38 254.52C108.12 254.33 108.89 254.13 109.47 253.64C109.93 253.25 110.23 252.71 110.52 252.18C112 249.51 113.49 246.81 114.24 243.85C114.79 241.69 114.93 239.45 114.89 237.23C114.89 237.01 114.88 236.78 114.8 236.58C114.69 236.3 114.45 236.08 114.2 235.91C113.25 235.28 112.04 235.2 110.9 235.15C106.57 234.96 102.14 234.87 97.9001 235.88C96.5901 236.19 94.37 236.51 93.73 237.9C92.95 239.6 93.19 242.24 93.1 244.08C92.97 246.75 92.9501 249.44 93.0601 252.12Z" fill="#97A8B2"/>
<path d="M101.91 249.15C99.49 248.82 97.0601 248.5 94.6401 248.17C94.5201 247.86 95.1201 248.18 95.0801 248.5C93.8101 258.63 94.3001 268.92 95.3101 279.11C95.7501 283.5 95.7801 287.91 95.3201 292.29C96.3201 292.4 98.0401 292.55 99.0301 292.66C100.87 279.01 101.98 265.32 103.82 251.67C103.91 250.98 103.97 250.18 103.44 249.68C103.05 249.31 102.46 249.22 101.91 249.15Z" fill="#97A8B2"/>
<path d="M98.76 204.45C100.21 204.4 101.69 203.42 103.25 203.1C102.84 201.84 103.33 200.48 103.46 199.16C103.64 197.37 103.14 195.59 102.62 193.88C102.2 192.5 101.73 191.07 100.74 190.01C100.54 189.8 100.31 189.6 100.04 189.53C99.8 189.47 99.55 189.51 99.31 189.54C97.6 189.8 92.85 190 92.4 191.92C91.78 194.55 93.59 198.04 94.61 200.37C95.09 201.47 95.58 202.59 96.42 203.44C97.18 204.23 97.97 204.48 98.76 204.45Z" fill="#EADDD0"/>
<path d="M115.34 242.09L115.37 242.06C115.39 242.04 115.4 242.02 115.42 242.01C115.46 241.95 115.5 241.9 115.54 241.84C116.05 241.06 116.49 240.24 116.94 239.43C117.78 229.97 116.71 220.42 113.74 211.12C112.81 208.2 111.89 204.98 108.4 202.98C108.22 202.88 108.03 202.78 107.81 202.74C107.52 202.69 107.22 202.77 106.94 202.84C105.06 203.32 103.18 203.8 101.29 204.29C100.92 204.39 100.54 204.48 100.16 204.57C99.76 204.66 99.36 204.74 98.95 204.8C98.25 204.9 95.5 205.56 95.4 206.22C95.16 207.91 94.94 209.6 94.75 211.3C94.27 215.49 93.91 219.67 93.92 223.87C93.93 228.06 93.55 232.24 92.86 236.39C92.81 236.71 92.56 238.4 92.26 240.13C92.28 240.16 92.29 240.19 92.31 240.22C92.55 240.68 92.81 241.12 93.1 241.55C93.13 241.59 93.18 241.66 93.23 241.74C93.26 241.77 93.28 241.8 93.3 241.82C93.62 242.19 93.98 242.54 94.35 242.87C94.38 242.9 94.43 242.94 94.49 243C93.98 242.52 94.52 243.01 94.67 243.11C95.06 243.37 95.46 243.61 95.87 243.82C95.97 243.87 96.39 244.05 96.43 244.07C96.47 244.09 96.52 244.1 96.56 244.12C102.46 243.87 108.35 243.46 114.2 242.87C114.56 242.58 114.95 242.29 115.34 242.09Z" fill="#8A0000"/>
<path d="M95.5802 291.91C95.5202 291.91 95.4602 291.91 95.4002 291.92C95.3202 291.94 95.2701 291.99 95.2201 292.03C95.0101 292.24 94.8502 292.47 94.7602 292.72C94.6802 292.95 94.6601 293.2 94.4901 293.4C94.3001 293.63 93.9501 293.77 93.6001 293.88C92.7101 294.17 91.7502 294.37 90.7802 294.46C90.5602 294.48 90.3402 294.5 90.1402 294.56C89.5802 294.75 89.4401 295.24 89.3701 295.67C89.3501 295.79 89.3401 295.94 89.4901 296.01C89.5701 296.05 89.6702 296.05 89.7702 296.05C92.5702 296.04 93.7601 296.04 96.5501 296.04C97.2301 296.04 97.9401 296.02 98.6001 295.9C98.6901 295.88 98.7801 295.87 98.8501 295.82C98.9201 295.77 98.9501 295.7 98.9801 295.63C99.3501 294.67 99.3901 293.62 99.3101 292.63C99.2801 292.32 99.2301 292.07 98.7401 292C98.0401 291.9 98.8101 291.98 98.1001 291.96C97.2701 291.95 96.4202 291.93 95.5802 291.91Z" fill="#97A8B2"/>
<path d="M107.67 194.57C107.68 193.71 107.18 192.93 106.76 192.18C106.06 190.93 105.5 189.58 104.64 188.43C103.78 187.28 102.51 186.32 101.07 186.28C100.47 186.26 99.88 186.4 99.3 186.54C96.82 187.14 94.32 187.75 92.06 188.93C91.78 189.08 91.49 189.24 91.31 189.51C91.15 189.74 91.1 190.03 91.05 190.31C90.98 190.7 90.9101 191.1 90.8401 191.49C90.8001 191.74 90.75 191.99 90.8 192.23C90.95 192.98 91.83 193.31 92.6 193.36C93.36 193.4 94.11 193.3 94.86 193.19C95.58 193.09 97.28 192.49 97.86 193.14C98.15 193.46 98.06 194 98.26 194.38C98.5 194.85 98.95 195.13 99.25 195.55C99.56 195.94 99.78 196.48 99.55 196.92C99.97 196.67 100.49 196.59 100.97 196.71C101.14 196.75 101.31 196.82 101.42 196.95C101.63 197.21 101.54 197.61 101.31 197.85C101.08 198.09 100.75 198.2 100.43 198.3C101.79 199.61 102.29 201.74 101.66 203.53C102.7 203.42 103.57 202.7 104.29 201.94C104.94 201.25 105.54 200.5 105.95 199.65C106.14 199.25 106.29 198.84 106.44 198.43C106.73 197.61 107.03 196.78 107.32 195.96C107.5 195.5 107.66 195.04 107.67 194.57Z" fill="#333333"/>
<path d="M104.27 292C104.21 292 104.15 292 104.09 292.01C104.01 292.03 103.96 292.08 103.91 292.12C103.7 292.33 103.54 292.56 103.45 292.81C103.37 293.04 103.35 293.29 103.18 293.49C102.99 293.72 102.64 293.86 102.29 293.97C101.4 294.26 100.44 294.46 99.4701 294.55C99.2501 294.57 99.0301 294.59 98.8301 294.65C98.2701 294.84 98.1301 295.33 98.0601 295.76C98.0401 295.88 98.0301 296.03 98.1801 296.1C98.2601 296.14 98.3601 296.14 98.4601 296.14C101.26 296.13 102.45 296.13 105.24 296.13C105.92 296.13 106.63 296.11 107.29 295.99C107.38 295.97 107.47 295.96 107.54 295.91C107.61 295.86 107.64 295.79 107.67 295.72C108.04 294.76 108.08 293.71 108 292.72C107.97 292.41 107.92 292.16 107.43 292.09C106.73 291.99 107.5 292.07 106.79 292.05C105.95 292.04 105.11 292.02 104.27 292Z" fill="#97A8B2"/>
<path d="M84.8 225.32C84.51 225.9 84.1801 226.47 83.8201 227.01C83.7701 227.09 83.7101 227.17 83.6201 227.19C83.5301 227.22 83.43 227.17 83.35 227.13C82.38 226.65 81.4201 226.17 80.4501 225.7C80.6801 223.42 80.5501 220.66 81.2101 218.49C81.3001 218.18 86.0601 219.01 86.3801 219.88C86.6901 220.74 85.8101 222.81 85.5201 223.64C85.3201 224.21 85.08 224.77 84.8 225.32Z" fill="#C7B299"/>
<path d="M80.9001 218.73C81.0401 218.76 81.1801 218.77 81.3201 218.78C81.6201 218.81 81.9101 218.87 82.2001 218.93C83.6301 219.26 85.0201 219.74 86.3901 220.26C86.4801 220.29 86.57 220.33 86.67 220.32C86.82 220.3 86.93 220.16 86.97 220.02C87.01 219.87 86.99 219.72 86.97 219.57C86.97 219.54 86.9601 219.51 86.9401 219.49C86.9201 219.47 86.9001 219.46 86.8701 219.45C86.8001 219.42 86.73 219.39 86.66 219.37C86.34 219.25 86.01 219.15 85.68 219.06C84.25 218.66 82.8101 218.29 81.3701 217.95C81.3001 217.93 81.2101 217.92 81.1501 217.96C81.0401 218.04 80.9801 218.24 80.9501 218.36C80.9001 218.46 80.7401 218.7 80.9001 218.73Z" fill="#534741"/>
<path d="M80.8301 222.81L85.11 224.67L85.97 222.41L80.8301 220.32V222.81Z" fill="#5B8C87"/>
<path d="M96.8901 197.18C96.8701 197.09 96.7601 197 96.6501 197.01C95.5801 197.12 94.53 197.36 93.5 197.62C93.14 197.71 93.3001 198.24 93.6501 198.14C94.5801 197.9 95.5301 197.72 96.4601 197.51C96.5801 197.99 96.68 198.48 96.74 198.98C96.77 199.2 96.7801 199.42 96.7801 199.64C96.7901 200.04 96.19 200.07 95.93 200.12C95.61 200.18 95.29 200.2 94.97 200.21C94.5 200.23 94.47 200.02 94.29 199.71C94.02 199.24 93.81 198.75 93.62 198.25C93.56 198.09 93.31 198.16 93.35 198.32C93.56 199.04 93.83 199.77 94.23 200.42C94.52 200.89 95.6 200.6 96.04 200.54C96.53 200.47 97.16 200.36 97.22 199.8C97.33 198.95 97.1101 198.01 96.8901 197.18Z" fill="#333333"/>
<path d="M99.4501 196.24C98.5301 196.59 97.6501 197.12 96.7701 197.56C96.6001 197.64 96.7201 197.92 96.9001 197.86C97.8301 197.55 98.8301 197.29 99.7201 196.88C100.08 196.72 99.8201 196.1 99.4501 196.24Z" fill="#333333"/>
<path d="M107.41 211.32C107.05 209.94 105.55 207.06 103.97 209.13C103.49 209.76 103.37 210.6 103.28 211.39C102.51 217.76 101.73 224.12 100.96 230.49C100.56 233.81 100.12 237.24 98.4001 240.1C98.1201 240.56 97.8101 241.01 97.6801 241.53C97.5401 242.05 97.6201 242.66 98.0301 243.01C97.4701 243.71 97.9301 245.23 98.9601 245.15C99.1801 245.13 99.3801 245.04 99.5601 244.91C100.59 244.2 100.33 242.88 100.57 241.78C100.89 240.28 101.35 238.82 101.81 237.37C103.57 231.76 105.78 226.29 106.96 220.56C107.58 217.5 108.2 214.33 107.41 211.32Z" fill="#EADDD0"/>
<path d="M103.41 207.88C103.01 207.97 102.6 208.07 102.3 208.34C101.91 208.69 101.78 209.24 101.67 209.75C100.47 215.51 99.5601 221.33 98.9401 227.19C100.92 227.69 102.91 228.19 104.89 228.69C107.41 223.21 108.54 217.1 108.14 211.09C108.07 210.02 107.89 208.83 107.06 208.15C106.06 207.36 104.64 207.6 103.41 207.88Z" fill="#4D2417"/>
<path d="M21.47 296.58C23.48 296.52 25.49 296.45 27.49 296.3C28.46 296.23 29.4601 296.13 30.34 295.71C30.82 295.48 31.31 294.97 31.09 294.49C30.91 294.09 30.37 294.03 29.92 294.03C22.67 294.02 15.41 294.01 8.17001 294.49C6.86001 294.58 5.37002 294.78 4.62002 295.86C3.70002 297.2 6.45004 296.82 7.02004 296.83C8.61004 296.85 10.2001 296.85 11.7801 296.83C15.0201 296.79 18.24 296.69 21.47 296.58Z" fill="url(#paint4_linear)"/>
<path d="M21.47 296.58C23.48 296.52 25.49 296.45 27.49 296.3C28.46 296.23 29.4601 296.13 30.34 295.71C30.82 295.48 31.31 294.97 31.09 294.49C30.91 294.09 30.37 294.03 29.92 294.03C22.67 294.02 15.41 294.01 8.17001 294.49C6.86001 294.58 5.37002 294.78 4.62002 295.86C3.70002 297.2 6.45004 296.82 7.02004 296.83C8.61004 296.85 10.2001 296.85 11.7801 296.83C15.0201 296.79 18.24 296.69 21.47 296.58Z" fill="url(#paint5_linear)"/>
<path d="M36.1501 224.51C36.3401 224.68 36.5301 224.84 36.7701 224.91C37.1001 225 37.4501 224.89 37.7701 224.78C37.9901 224.71 38.2001 224.63 38.4201 224.56C38.5001 224.53 38.5901 224.5 38.6401 224.42C38.6901 224.34 38.6801 224.25 38.6701 224.15C38.4601 222.13 38.0801 220.13 37.5201 218.18C36.6301 218.59 35.7501 219 34.8601 219.41C34.3801 219.63 32.7701 220.07 32.7401 220.65C32.7101 221.24 33.8501 222.2 34.2201 222.6C34.8301 223.27 35.4701 223.91 36.1501 224.51Z" fill="white"/>
<path d="M36.5601 217.81C36.8201 217.7 37.1001 217.59 37.3901 217.63C37.6701 217.67 37.9501 217.92 37.9101 218.2C37.8801 218.4 36.8201 218.88 36.6301 218.99C36.1701 219.26 35.7001 219.51 35.2201 219.75C34.7401 219.99 34.2501 220.21 33.7601 220.42C33.4901 220.54 32.9001 220.91 32.5801 220.8C31.4101 220.39 33.4501 219.27 33.8001 219.07C34.6901 218.59 35.6201 218.2 36.5601 217.81Z" fill="#333333"/>
<path d="M26.2401 293.13C25.8101 293.16 25.3702 293.19 24.9502 293.08C24.5302 292.97 24.1301 292.68 24.0001 292.27C23.8901 291.92 23.9402 291.46 23.6402 291.26C23.5702 291.21 23.4902 291.19 23.4002 291.18C23.3602 283.85 23.5401 279.62 23.4901 272.14C23.8601 269.65 23.6402 267.34 23.5802 264.93C23.4002 257.32 23.2301 249.71 23.0501 242.1C23.0301 241.09 22.9901 240.04 22.4901 239.1C21.6801 237.58 19.8801 236.72 18.1901 236.06C13.1701 234.1 7.49012 231.3 6.11012 237.6C5.74012 239.27 5.44014 240.95 5.19014 242.65C5.01014 243.86 4.87014 245.12 5.31014 246.32C6.06014 248.36 7.45016 253.37 9.21016 254.85C13.8002 258.71 15.8001 263.07 17.3101 268.19C16.8401 269.9 17.3901 272.32 17.6001 273.64C18.5801 279.97 20.6002 285.86 21.5902 292.19C21.1702 292.97 20.9901 293.88 21.1101 294.76C21.1301 294.94 21.1701 295.12 21.2901 295.25C21.4601 295.44 21.7401 295.48 21.9901 295.5C22.7001 295.55 23.4101 295.57 24.1201 295.56C24.6701 295.55 25.2601 295.5 25.6801 295.14C26.2301 294.68 26.2601 293.86 26.2401 293.13Z" fill="#998675"/>
<path d="M20.2601 249.84C18.8501 246.73 13.6901 244.64 8.82006 248.19C5.91006 250.31 8.12007 252.67 8.76007 254.77C9.54007 257.32 10.06 259.95 10.3 262.62C10.77 267.77 10.2401 273.11 8.70007 278.46C7.68007 282.02 7.66007 285.92 6.95007 289.47C6.56007 291.46 5.32004 294.1 5.61004 296.08C6.71004 296.09 7.81008 296.1 8.90008 296.11C9.87008 296.12 10.9001 296.11 11.7101 295.58C12.5201 295.05 12.92 293.79 12.24 293.1C11.57 293.32 10.86 293.54 10.17 293.38C7.14004 292.66 11.1001 285.81 11.6801 284.3C14.1501 277.86 16.62 271.42 18.41 264.98C19.73 260.27 22.2001 254.09 20.2601 249.84Z" fill="#998675"/>
<path d="M21.19 215.51C22.39 218.46 23.59 221.4 24.79 224.35C25.12 225.16 25.45 226.02 25.29 226.87C25.01 228.38 23.36 229.19 21.87 229.53C18.92 225.34 15.81 221.26 12.56 217.3C10.71 215.05 7.83006 209.85 12.08 208.28C16.9 206.51 19.76 211.99 21.19 215.51Z" fill="#ACB18F"/>
<path d="M32.0001 211.03C32.3901 210.45 32.9501 210.71 33.4401 211.21C32.0701 216.17 30.8501 221.17 29.7801 226.2C29.4501 227.76 29.0301 229.48 27.7001 230.38C27.1401 230.76 26.46 230.95 25.79 231.06C24.58 231.27 23.1201 231.16 22.4401 230.14C21.4701 228.68 22.6701 227.26 23.6301 226.24C24.7601 225.05 25.2401 224.28 25.9401 222.66C27.5501 218.92 29.7301 214.43 32.0001 211.03Z" fill="#ACB18F"/>
<path d="M34.29 210.8C34.4 210.66 34.46 210.49 34.53 210.32C34.7 209.89 34.87 209.45 35.04 209.02C35.12 208.82 35.2 208.62 35.21 208.41C35.22 208.2 35.16 207.97 35 207.83C34.85 207.7 34.64 207.67 34.44 207.71C34.24 207.75 34.08 207.86 33.92 207.98C33.57 208.25 33.28 208.6 33.08 209C32.92 209.32 32.82 209.67 32.57 209.92C32.46 210.03 32.33 210.12 32.23 210.25C32.08 210.44 32.05 210.71 32.14 210.93C32.47 211.66 33.91 211.3 34.29 210.8Z" fill="#F2D6C9"/>
<path d="M27.48 249.88C26.98 239.18 25.87 228.51 24.42 217.88C23.89 213.98 23.25 209.34 19.17 207.52C15.39 205.83 10.7301 205.4 8.27008 209.2C6.89008 211.33 6.58004 213.91 6.29004 216.41C4.55004 231.7 2.81007 246.99 1.07007 262.28C2.98007 262.39 25.8401 265.78 25.9401 264.35C25.9401 264.33 25.9401 264.31 25.9401 264.3C26.0901 264.29 26.23 264.26 26.36 264.2C26.87 263.97 27.02 263.36 27.11 262.83C27.78 258.55 27.68 254.2 27.48 249.88Z" fill="#FFB4D8"/>
<path d="M33.5202 222.84C33.5702 222.73 33.6101 222.61 33.6801 222.51C33.8301 222.3 34.0901 222.22 34.3501 222.19C34.6001 222.16 34.8601 222.18 35.1101 222.14C35.8901 222 36.5301 221.23 37.3101 221.35C37.5501 221.39 37.7701 221.51 37.9701 221.65C38.2301 221.84 38.4701 222.09 38.5401 222.4C38.6401 222.89 38.2901 223.36 37.9701 223.74C37.7901 223.95 37.6001 224.17 37.3601 224.3C37.1601 224.41 36.9302 224.45 36.7002 224.5C36.1502 224.63 35.6001 224.83 35.1601 225.21C34.8001 225.52 34.5001 225.95 34.0501 226.06C33.2301 226.26 32.4601 225.36 32.3701 224.62C32.2601 223.86 33.2402 223.47 33.5202 222.84Z" fill="#F2D6C9"/>
<path d="M34.0701 225.47C33.7101 224.75 33.3501 224.03 33.0001 223.31C31.8701 223.5 31.0201 224.4 30.2101 225.2C29.0901 226.31 27.8801 227.33 26.5901 228.25C25.8301 228.79 24.96 229.31 24.04 229.17C22.92 229 22.2001 227.91 21.6201 226.93C19.4601 223.24 17.3001 219.54 15.1401 215.85C13.4301 212.93 11.52 214 10.29 216.62C9.18005 219.01 10.6101 221.7 11.7101 223.86C13.1301 226.65 14.7 229.36 16.42 231.99C17.43 233.53 18.6401 235.15 20.4401 235.56C21.3001 235.76 22.2201 235.65 23.0701 235.4C25.8201 234.62 28.0001 232.57 30.0301 230.55C31.3401 229.24 32.64 227.9 33.91 226.55C34.05 226.4 34.2 226.24 34.23 226.03C34.25 225.85 34.1601 225.65 34.0701 225.47Z" fill="#ACB18F"/>
<path d="M21.82 193.8C21.37 192.46 20.66 190.81 19.21 190.46C17.64 190.09 15.4201 191.12 14.2801 192.12C12.8701 193.35 11.99 195.09 11.5 196.89C10.96 198.85 10.87 201.03 11.75 202.87C12.63 204.71 14.64 206.09 16.65 205.79C18 205.59 19.1501 204.7 20.0301 203.66C22.2901 200.99 22.93 197.1 21.82 193.8Z" fill="#F2D6C9"/>
<path d="M15.07 198.83C14.62 198.04 13.26 198.08 12.86 198.89C12.56 199.49 13.64 201.93 13.8 202.68C14.22 204.67 12.08 218.25 12.63 220.22C9.42004 220.29 6.18003 219.94 3.12003 218.96C2.81003 218.86 2.48004 218.74 2.26004 218.49C1.98004 218.16 1.97002 217.68 1.99002 217.25C2.23002 210.81 8.17001 188.89 16.16 189.08C17.14 189.1 18.11 189.32 19.07 189.55C19.7 189.7 20.3301 189.87 20.9001 190.19C22.0601 190.86 22.78 192.13 23.07 193.44C23.37 194.75 23.29 196.11 23.22 197.44C23.2 197.85 18.41 197.43 17.95 197.36C17.43 197.28 16.46 196.87 15.94 197.09C15.34 197.34 15.27 198.29 15.07 198.83Z" fill="#534741"/>
<path opacity="0.19" d="M8.09003 240.97C6.71003 240.7 5.44997 240.03 4.21997 239.36C4.41997 238.76 4.62 238.16 4.81 237.56C10.45 239.59 16.86 239.41 22.38 237.07C22.47 238.02 22.55 238.97 22.64 239.92C21.14 240.24 19.61 240.36 18.09 240.49C16.01 240.66 13.94 240.83 11.86 241.01C10.61 241.11 9.33003 241.21 8.09003 240.97Z" fill="white"/>
<path d="M34.2938 126.755C35.0938 140.355 25.9604 158.088 21.2937 165.255C30.4937 167.655 56.4605 144.255 68.2939 132.255C119 143 154 104.5 148 62.5001C140.36 9.01933 86.706 -2.75352 52 11.5008C-0.999992 38.5008 6.62717 105.255 34.2938 126.755Z" stroke="black" stroke-width="10"/>
<path d="M76 145.365C77.5136 149.324 77.9998 160.5 90.065 162.271C91.152 166.32 93.9121 175.203 96.2567 178.344C96.7766 174.979 98.3274 167.739 100.371 165.7C107.406 165.945 121.291 162.221 120.548 145.365" stroke="black" stroke-width="5"/>
<path d="M122 70.5C122 92.8675 103.868 111 81.5 111C59.1325 111 41 92.8675 41 70.5C41 48.1325 59.1325 30 81.5 30C103.868 30 122 48.1325 122 70.5Z" fill="#F98585"/>
<circle cx="59.7061" cy="69.2457" r="5.5" fill="black"/>
<circle cx="84.7061" cy="69.2457" r="5.5" fill="black"/>
<circle cx="108.706" cy="69.2457" r="5.5" fill="black"/>
<defs>
<linearGradient id="paint0_linear" x1="44.6849" y1="293.498" x2="75.1598" y2="293.498" gradientUnits="userSpaceOnUse">
<stop stop-color="#4D4D4D"/>
<stop offset="1"/>
</linearGradient>
<linearGradient id="paint1_linear" x1="44.6849" y1="293.498" x2="75.1598" y2="293.498" gradientUnits="userSpaceOnUse">
<stop/>
<stop offset="1"/>
</linearGradient>
<linearGradient id="paint2_linear" x1="87.9568" y1="295.987" x2="115.803" y2="295.987" gradientUnits="userSpaceOnUse">
<stop stop-color="#4D4D4D"/>
<stop offset="1"/>
</linearGradient>
<linearGradient id="paint3_linear" x1="87.9568" y1="295.987" x2="115.803" y2="295.987" gradientUnits="userSpaceOnUse">
<stop/>
<stop offset="1"/>
</linearGradient>
<linearGradient id="paint4_linear" x1="4.43992" y1="295.454" x2="31.1404" y2="295.454" gradientUnits="userSpaceOnUse">
<stop stop-color="#4D4D4D"/>
<stop offset="1"/>
</linearGradient>
<linearGradient id="paint5_linear" x1="4.43992" y1="295.454" x2="31.1404" y2="295.454" gradientUnits="userSpaceOnUse">
<stop/>
<stop offset="1"/>
</linearGradient>
</defs>
</svg>
