<svg width="147" height="171" viewBox="0 0 147 171" fill="none" xmlns="http://www.w3.org/2000/svg">
<path d="M27.2938 126.755C28.0938 140.355 18.9604 158.088 14.2937 165.255C23.4937 167.655 49.4605 144.255 61.2939 132.255C112 143 147 104.5 141 62.5001C133.36 9.01933 79.706 -2.75352 45 11.5008C-7.99999 38.5008 -0.372828 105.255 27.2938 126.755Z" stroke="black" stroke-width="10"/>
<path d="M115 70.5C115 92.8675 96.8675 111 74.5 111C52.1325 111 34 92.8675 34 70.5C34 48.1325 52.1325 30 74.5 30C96.8675 30 115 48.1325 115 70.5Z" fill="#F98585"/>
<circle cx="52.7061" cy="69.2457" r="5.5" fill="black"/>
<circle cx="77.7061" cy="69.2457" r="5.5" fill="black"/>
<circle cx="101.706" cy="69.2457" r="5.5" fill="black"/>
</svg>
